<svg id="dd-logo-d" xmlns="http://www.w3.org/2000/svg" viewBox="0 0 30 30"><title>dd-svgs</title><path d="M9.26,4.5c-2,0-3.78.07-5.76,0.24V25.5H9.23c0.39,0,.86,0,1.23,0C18.31,25.07,21.58,20.4,21.58,15,21.58,8.27,17.06,4.5,9.26,4.5Zm1.57,16.9c-0.21,0-.53,0-0.73,0H8.49V8.73c0.56,0,1.26-.08,1.73-0.08,2.95,0,6.09,1.92,6.09,6.36C16.31,19.64,13.36,21.18,10.83,21.39Z" fill-rule="evenodd"/><path d="M24.45,19.85a2.83,2.83,0,1,1-2.87,2.83A2.85,2.85,0,0,1,24.45,19.85Z" fill="#92d400" fill-rule="evenodd"/></svg>