<?xml version="1.0" encoding="utf-8"?>
<!-- Generator: Adobe Illustrator 19.2.0, SVG Export Plug-In . SVG Version: 6.00 Build 0)  -->
<svg version="1.1" id="Layer_1" xmlns="http://www.w3.org/2000/svg" xmlns:xlink="http://www.w3.org/1999/xlink" x="0px" y="0px"
	 viewBox="0 0 37 26.7" style="enable-background:new 0 0 37 26.7;" xml:space="preserve">
<g>
	<path d="M32.2,25.6H4.8c-1.7,0-3.1-1.3-3.1-3V6.3c0-1.7,1.4-3,3.1-3h27.5c1.7,0,3.1,1.3,3.1,3v16.4C35.3,24.3,33.9,25.6,32.2,25.6z
		 M4.8,4.8C4,4.8,3.3,5.4,3.3,6.3v16.4c0,0.8,0.7,1.5,1.5,1.5h27.5c0.8,0,1.5-0.7,1.5-1.5V6.3c0-0.8-0.7-1.5-1.5-1.5H4.8z"/>
	<path d="M18.5,17.4c-0.2,0-0.4-0.1-0.5-0.2L2.8,5.3c-0.3-0.3-0.4-0.7-0.1-1c0.3-0.3,0.7-0.4,1-0.1l14.8,11.5L33.3,4.2
		c0.4-0.3,0.8-0.2,1.1,0.1c0.3,0.3,0.2,0.7-0.1,1L19,17.3C18.9,17.3,18.7,17.4,18.5,17.4z"/>
</g>
</svg>
